<?xml version="1.0" encoding="UTF-8"?>
<svg id="Layer_1" data-name="Layer 1" xmlns="http://www.w3.org/2000/svg" xmlns:xlink="http://www.w3.org/1999/xlink" viewBox="0 0 841.89 595.28">
  <defs>
    <style>
      .cls-1 {
        fill: url(#linear-gradient-2);
      }

      .cls-2 {
        opacity: .5;
      }

      .cls-3 {
        mask: url(#mask-2);
      }

      .cls-4 {
        fill: url(#linear-gradient-6);
      }

      .cls-5 {
        clip-path: url(#clippath-2);
      }

      .cls-6 {
        clip-path: url(#clippath-1);
      }

      .cls-7 {
        fill: #e2a02f;
      }

      .cls-8 {
        fill: url(#linear-gradient-5);
      }

      .cls-9 {
        clip-path: url(#clippath);
      }

      .cls-10 {
        fill: none;
      }

      .cls-11 {
        clip-path: url(#clippath-3);
      }

      .cls-12 {
        mask: url(#mask-1);
      }

      .cls-13 {
        mask: url(#mask);
      }

      .cls-14 {
        fill: url(#linear-gradient-3);
      }

      .cls-15 {
        fill: url(#linear-gradient);
      }

      .cls-16 {
        fill: #174477;
      }

      .cls-17 {
        fill: url(#linear-gradient-4);
      }
    </style>
    <clipPath id="clippath">
      <rect class="cls-10" x="82.19" y="98.82" width="559.85" height="117.06"/>
    </clipPath>
    <clipPath id="clippath-1">
      <path class="cls-10" d="m546.48,157.38c41.69,0,77.8,23.78,95.57,58.51v-19.71c0-53.77-43.59-97.35-97.35-97.35H82.19v11.75c.12,25.98,21.63,46.8,47.61,46.8h416.67Z"/>
    </clipPath>
    <linearGradient id="linear-gradient" x1="-5.32" y1="1.64" x2="-3.54" y2="1.64" gradientTransform="translate(920.94 347.21) scale(115.74 -115.74)" gradientUnits="userSpaceOnUse">
      <stop offset="0" stop-color="#fff"/>
      <stop offset=".04" stop-color="#fff"/>
      <stop offset="1" stop-color="#000"/>
    </linearGradient>
    <mask id="mask" x="79.19" y="84.48" width="565.85" height="145.76" maskUnits="userSpaceOnUse">
      <rect class="cls-15" x="296.43" y="-123.98" width="131.38" height="562.66" transform="translate(195.53 515.32) rotate(-88.53)"/>
    </mask>
    <linearGradient id="linear-gradient-2" x1="-5.32" y1="1.64" x2="-3.54" y2="1.64" gradientTransform="translate(920.94 347.21) scale(115.74 -115.74)" gradientUnits="userSpaceOnUse">
      <stop offset="0" stop-color="#282562"/>
      <stop offset=".04" stop-color="#282562"/>
      <stop offset="1" stop-color="#282562"/>
    </linearGradient>
    <clipPath id="clippath-2">
      <path class="cls-10" d="m616.45,399.77c.41.09.8.22,1.21.32.69.18,1.39.35,2.06.57.45.15.88.33,1.32.5.61.23,1.21.45,1.8.71.45.2.88.43,1.32.65.55.28,1.11.55,1.64.86.44.25.85.52,1.27.79.51.32,1.02.65,1.52,1,.41.29.8.6,1.2.91.47.37.94.74,1.39,1.14.38.33.74.68,1.11,1.03.43.41.85.83,1.26,1.27.35.37.68.74,1.01,1.13.39.45.77.92,1.13,1.39.31.4.61.8.89,1.22.34.49.67,1,.99,1.51.26.43.53.85.77,1.29.3.53.57,1.08.84,1.63.22.45.44.9.64,1.36.25.57.46,1.16.68,1.74.17.46.35.92.5,1.39.19.61.35,1.24.51,1.87.12.47.25.93.35,1.41.14.67.23,1.35.33,2.04.06.46.15.91.2,1.37.08.77.1,1.55.12,2.34.01.39.05.77.05,1.17-.02,4.56-.89,9.3-3.44,14.21-6.07,11.71-18.52,18.73-31.72,18.73h-204.41v11.25c0,1.76.05,3.52.13,5.26.05.96.14,1.91.21,2.87.06.75.1,1.5.17,2.24.13,1.29.29,2.56.46,3.83.05.39.09.78.15,1.16.21,1.45.46,2.88.73,4.3,9.22,49.07,52.27,86.2,104.02,86.2h98.56c.57,0,1.13,0,1.7-.01,114.49-1.37,122.79-171.13,8.88-182.75-1.64-.17-3.28-.31-4.93-.42,1.14.13,2.26.31,3.37.55"/>
    </clipPath>
    <linearGradient id="linear-gradient-3" x1="2.38" y1="2.8" x2="4.17" y2="2.8" gradientTransform="translate(1178.99 -37.7) rotate(180) scale(188.5 -188.5)" gradientUnits="userSpaceOnUse">
      <stop offset="0" stop-color="#fff"/>
      <stop offset=".13" stop-color="#fff"/>
      <stop offset="1" stop-color="#000"/>
    </linearGradient>
    <mask id="mask-1" x="316.24" y="243.41" width="502.46" height="494.78" maskUnits="userSpaceOnUse">
      <rect class="cls-14" x="380.45" y="320.51" width="374.03" height="340.59" transform="translate(-179.73 422.89) rotate(-35.66)"/>
    </mask>
    <linearGradient id="linear-gradient-4" x1="2.38" y1="2.8" x2="4.17" y2="2.8" gradientTransform="translate(1178.99 -37.7) rotate(180) scale(188.5 -188.5)" gradientUnits="userSpaceOnUse">
      <stop offset="0" stop-color="#ea7724"/>
      <stop offset=".13" stop-color="#ea7724"/>
      <stop offset="1" stop-color="#e2a02f"/>
    </linearGradient>
    <clipPath id="clippath-3">
      <path class="cls-10" d="m234.3,255.76c2.65,48.8,43,87.01,91.87,87.01h403.97c-27.4-36.91-71.3-60.87-120.7-60.87h-274.8c-35.03,0-68.62-13.91-93.39-38.68l-8.08-8.08,1.12,20.62Z"/>
    </clipPath>
    <linearGradient id="linear-gradient-5" x1="-4.55" y1="-.45" x2="-2.77" y2="-.45" gradientTransform="translate(1051.21 216.91) scale(159.62 -159.62)" xlink:href="#linear-gradient-3"/>
    <mask id="mask-2" x="199.22" y="78.34" width="564.88" height="421.24" maskUnits="userSpaceOnUse">
      <rect class="cls-8" x="347.75" y="36.8" width="267.83" height="504.31" transform="translate(48.1 646.06) rotate(-70.44)"/>
    </mask>
    <linearGradient id="linear-gradient-6" x1="-4.55" y1="-.45" x2="-2.77" y2="-.45" gradientTransform="translate(1051.21 216.91) scale(159.62 -159.62)" xlink:href="#linear-gradient-4"/>
  </defs>
  <path class="cls-16" d="m642.04,196.18c0-53.77-43.59-97.35-97.35-97.35H82.19v11.24c0,58.47,47.4,105.87,105.87,105.87h453.98v-19.76Z"/>
  <g class="cls-2">
    <g class="cls-9">
      <g class="cls-6">
        <g class="cls-13">
          <rect class="cls-1" x="296.43" y="-123.98" width="131.38" height="562.66" transform="translate(195.53 515.32) rotate(-88.53)"/>
        </g>
      </g>
    </g>
  </g>
  <path class="cls-16" d="m660.97,150.04c11.76-31.77,36.81-56.82,68.58-68.58-31.77-11.76-56.82-36.81-68.58-68.58-11.76,31.77-36.81,56.82-68.58,68.58,31.77,11.76,56.82,36.81,68.58,68.58"/>
  <path class="cls-7" d="m609.45,281.9h-274.8c-39.03,0-76.11-17.09-101.47-46.76v62.78h0c2.5,56.26,48.88,101.1,105.75,101.1h270.51c19.51,0,35.14,16.96,32.92,36.91-1.89,16.91-16.86,29.35-33.88,29.35h-205.48v11.24c0,58.47,47.4,105.87,105.87,105.87h98.56c81.89,0,151.5-66.97,152.25-148.85.76-83.48-66.93-151.64-150.24-151.64"/>
  <g class="cls-5">
    <g class="cls-12">
      <rect class="cls-17" x="380.45" y="320.51" width="374.03" height="340.59" transform="translate(-179.73 422.89) rotate(-35.66)"/>
    </g>
  </g>
  <g class="cls-11">
    <g class="cls-3">
      <rect class="cls-4" x="347.75" y="36.8" width="267.83" height="504.31" transform="translate(48.1 646.06) rotate(-70.44)"/>
    </g>
  </g>
</svg>