<?xml version="1.0" encoding="UTF-8"?>
<svg id="Layer_1" data-name="Layer 1" xmlns="http://www.w3.org/2000/svg" xmlns:xlink="http://www.w3.org/1999/xlink" width="180" viewBox="0 0 662.95 167.15">
  <defs>
    <style>
      .cls-1 {
        fill: url(#linear-gradient-2);
      }

      .cls-2 {
        opacity: .5;
      }

      .cls-3 {
        mask: url(#mask-2);
      }

      .cls-4 {
        fill: url(#linear-gradient-6);
      }

      .cls-5 {
        clip-path: url(#clippath-2);
      }

      .cls-6 {
        clip-path: url(#clippath-1);
      }

      .cls-7 {
        fill: #e2a02f;
      }

      .cls-8 {
        fill: url(#linear-gradient-5);
      }

      .cls-9 {
        clip-path: url(#clippath);
      }

      .cls-10 {
        fill: none;
      }

      .cls-11 {
        clip-path: url(#clippath-3);
      }

      .cls-12 {
        mask: url(#mask-1);
      }

      .cls-13 {
        mask: url(#mask);
      }

      .cls-14 {
        fill: url(#linear-gradient-3);
      }

      .cls-15 {
        fill: url(#linear-gradient);
      }

      .cls-16 {
        fill: #174477;
      }

      .cls-17 {
        fill: url(#linear-gradient-4);
      }
    </style>
    <clipPath id="clippath">
      <rect class="cls-10" x="9.21" y="28.74" width="153.56" height="32.11"/>
    </clipPath>
    <clipPath id="clippath-1">
      <path class="cls-10" d="m136.55,44.8c11.43,0,21.34,6.52,26.21,16.05v-5.41c0-14.75-11.96-26.7-26.7-26.7H9.21v3.22c.03,7.13,5.93,12.84,13.06,12.84h114.29Z"/>
    </clipPath>
    <linearGradient id="linear-gradient" x1="-961.03" y1="-224.77" x2="-960.27" y2="-224.77" gradientTransform="translate(71834.32 -16740.12) scale(74.67 -74.67)" gradientUnits="userSpaceOnUse">
      <stop offset="0" stop-color="#fff"/>
      <stop offset=".04" stop-color="#fff"/>
      <stop offset="1" stop-color="#000"/>
    </linearGradient>
    <mask id="mask" x="8.38" y="24.8" width="155.2" height="39.98" maskUnits="userSpaceOnUse">
      <rect class="cls-15" x="67.97" y="-32.38" width="36.03" height="154.33" transform="translate(39.01 129.6) rotate(-88.53)"/>
    </mask>
    <linearGradient id="linear-gradient-2" x1="-961.03" y1="-224.77" x2="-960.27" y2="-224.77" gradientTransform="translate(71834.31 -16740.12) scale(74.67 -74.67)" gradientUnits="userSpaceOnUse">
      <stop offset="0" stop-color="#282562"/>
      <stop offset=".04" stop-color="#282562"/>
      <stop offset="1" stop-color="#282562"/>
    </linearGradient>
    <clipPath id="clippath-2">
      <path class="cls-10" d="m155.74,111.28c.11.02.22.06.33.09.19.05.38.1.57.16.12.04.24.09.36.14.17.06.33.12.49.2.12.05.24.12.36.18.15.08.3.15.45.23.12.07.23.14.35.22.14.09.28.18.42.27.11.08.22.16.33.25.13.1.26.2.38.31.1.09.2.19.31.28.12.11.23.23.35.35.09.1.19.2.28.31.11.12.21.25.31.38.09.11.17.22.25.33.09.14.18.27.27.41.07.12.14.23.21.35.08.15.16.3.23.45.06.12.12.25.18.37.07.16.13.32.19.48.05.13.09.25.14.38.05.17.1.34.14.51.03.13.07.26.1.39.04.18.06.37.09.56.02.13.04.25.05.38.02.21.03.43.03.64,0,.11.01.21.01.32,0,1.25-.24,2.55-.94,3.9-1.67,3.21-5.08,5.14-8.7,5.14h-56.07v3.08c0,.48.01.96.04,1.44.01.26.04.52.06.79.02.21.03.41.05.62.03.35.08.7.13,1.05.01.11.03.21.04.32.06.4.13.79.2,1.18,2.53,13.46,14.34,23.64,28.53,23.64h27.03c.15,0,.31,0,.47,0,31.4-.38,33.68-46.94,2.44-50.13-.45-.05-.9-.08-1.35-.12.31.03.62.09.92.15"/>
    </clipPath>
    <linearGradient id="linear-gradient-3" x1="-954.34" y1="-206.6" x2="-953.58" y2="-206.6" gradientTransform="translate(-115875.54 25261.45) rotate(180) scale(121.62 -121.62)" gradientUnits="userSpaceOnUse">
      <stop offset="0" stop-color="#fff"/>
      <stop offset=".13" stop-color="#fff"/>
      <stop offset="1" stop-color="#000"/>
    </linearGradient>
    <mask id="mask-1" x="73.4" y="68.4" width="137.82" height="135.71" maskUnits="userSpaceOnUse">
      <rect class="cls-14" x="91.01" y="89.54" width="102.59" height="93.42" transform="translate(-52.75 108.52) rotate(-35.66)"/>
    </mask>
    <linearGradient id="linear-gradient-4" x1="-954.34" y1="-206.6" x2="-953.58" y2="-206.6" gradientTransform="translate(-115875.52 25261.45) rotate(180) scale(121.62 -121.62)" gradientUnits="userSpaceOnUse">
      <stop offset="0" stop-color="#ea7724"/>
      <stop offset=".13" stop-color="#ea7724"/>
      <stop offset="1" stop-color="#e2a02f"/>
    </linearGradient>
    <clipPath id="clippath-3">
      <path class="cls-10" d="m50.93,71.78c.73,13.39,11.79,23.87,25.2,23.87h110.8c-7.52-10.12-19.56-16.7-33.11-16.7h-75.37c-9.61,0-18.82-3.82-25.62-10.61l-2.21-2.21.31,5.65Z"/>
    </clipPath>
    <linearGradient id="linear-gradient-5" x1="-955.88" y1="-223.34" x2="-955.12" y2="-223.34" gradientTransform="translate(98518.97 -22920.13) scale(102.99 -102.99)" xlink:href="#linear-gradient-3"/>
    <mask id="mask-2" x="41.31" y="23.12" width="154.94" height="115.54" maskUnits="userSpaceOnUse">
      <rect class="cls-8" x="82.04" y="11.72" width="73.46" height="138.32" transform="translate(2.79 165.72) rotate(-70.44)"/>
    </mask>
    <linearGradient id="linear-gradient-6" x1="-955.88" y1="-223.34" x2="-955.12" y2="-223.34" gradientTransform="translate(98518.97 -22920.13) scale(102.99 -102.99)" xlink:href="#linear-gradient-4"/>
  </defs>
  <path class="cls-16" d="m162.76,55.44c0-14.75-11.96-26.7-26.7-26.7H9.21v3.08c0,16.04,13,29.04,29.04,29.04h124.52v-5.42Z"/>
  <g class="cls-2">
    <g class="cls-9">
      <g class="cls-6">
        <g class="cls-13">
          <rect class="cls-1" x="67.97" y="-32.38" width="36.03" height="154.33" transform="translate(39.01 129.6) rotate(-88.53)"/>
        </g>
      </g>
    </g>
  </g>
  <path class="cls-16" d="m167.96,42.78c3.22-8.71,10.1-15.59,18.81-18.81-8.71-3.22-15.59-10.1-18.81-18.81-3.22,8.71-10.1,15.59-18.81,18.81,8.71,3.22,15.59,10.1,18.81,18.81"/>
  <path class="cls-7" d="m153.82,78.95h-75.37c-10.71,0-20.88-4.69-27.83-12.83v17.22h0c.69,15.43,13.41,27.73,29.01,27.73h74.2c5.35,0,9.64,4.65,9.03,10.13-.52,4.64-4.62,8.05-9.29,8.05h-56.36v3.08c0,16.04,13,29.04,29.04,29.04h27.03c22.46,0,41.55-18.37,41.76-40.83.21-22.9-18.36-41.59-41.21-41.59"/>
  <g class="cls-5">
    <g class="cls-12">
      <rect class="cls-17" x="91.01" y="89.54" width="102.59" height="93.42" transform="translate(-52.75 108.52) rotate(-35.66)"/>
    </g>
  </g>
  <g class="cls-11">
    <g class="cls-3">
      <rect class="cls-4" x="82.04" y="11.72" width="73.46" height="138.32" transform="translate(2.79 165.72) rotate(-70.44)"/>
    </g>
  </g>
  <rect class="cls-7" x="222.69" y="129.55" width="2.7" height="13.44"/>
  <polygon class="cls-7" points="240.24 129.52 240.24 143.24 240.11 143.24 232.14 135.48 232.14 143.01 229.43 143.01 229.43 129.3 229.57 129.3 237.53 137.05 237.53 129.52 240.24 129.52"/>
  <path class="cls-7" d="m243.58,140.68l2.16-1.52c.59.95,1.45,1.38,2.61,1.38,1.27,0,2.12-.52,2.12-1.23,0-.98-1.61-1.76-3.02-2.46-1.51-.75-3.17-1.58-3.17-3.72,0-2.33,1.97-3.86,4.44-3.86,1.83,0,3.35.76,3.96,2.38l-1.99,1.39c-.4-.8-1.18-1.13-1.93-1.13-1.01,0-1.76.58-1.76,1.28,0,.8,1.02,1.08,2.56,1.8,2.23,1.05,3.63,2.18,3.63,4.25,0,2.45-2,4.01-4.88,4.01-2.2,0-3.83-.92-4.73-2.59"/>
  <polygon class="cls-7" points="265.03 132.23 261.73 132.23 261.73 142.99 259.02 142.99 259.02 132.23 255.71 132.23 255.71 129.55 265.03 129.55 265.03 132.23"/>
  <rect class="cls-7" x="268.26" y="129.55" width="2.7" height="13.44"/>
  <polygon class="cls-7" points="283.51 132.23 280.21 132.23 280.21 142.99 277.5 142.99 277.5 132.23 274.19 132.23 274.19 129.55 283.51 129.55 283.51 132.23"/>
  <path class="cls-7" d="m286.62,138.02v-8.47h2.72v8.46c0,1.47,1.16,2.53,2.46,2.53s2.48-1.08,2.48-2.53v-8.46h2.72v8.47c0,3.04-2.33,5.26-5.19,5.26s-5.19-2.22-5.19-5.26"/>
  <polygon class="cls-7" points="309.42 132.23 306.12 132.23 306.12 142.99 303.41 142.99 303.41 132.23 300.1 132.23 300.1 129.55 309.42 129.55 309.42 132.23"/>
  <polygon class="cls-7" points="315.35 132.21 315.35 134.84 319.98 134.84 319.98 137.53 315.35 137.53 315.35 140.31 320.75 140.31 320.75 142.99 312.64 142.99 312.64 129.55 320.75 129.55 320.75 132.21 315.35 132.21"/>
  <path class="cls-7" d="m330.57,136.29c0-3.86,3.14-7.01,6.99-7.01s7,3.15,7,7.01-3.15,6.96-7,6.96-6.98-3.14-6.98-6.96m11.25-.02c0-2.35-1.92-4.27-4.27-4.27s-4.25,1.92-4.25,4.27,1.91,4.24,4.25,4.24,4.27-1.91,4.27-4.24"/>
  <polygon class="cls-7" points="350.71 132.21 350.71 134.92 355.35 134.92 355.35 137.62 350.71 137.62 350.71 143.01 348.01 143.01 348.01 129.52 356.12 129.52 356.12 132.21 350.71 132.21"/>
  <path class="cls-7" d="m365.47,136.28c0-3.79,3.19-7,6.98-7,1.75.03,3.3.72,4.71,2.08l-1.56,2.13c-.92-.9-2.02-1.45-3.18-1.45-2.16,0-4.22,1.92-4.22,4.27s2.13,4.24,4.21,4.24c1.23,0,2.3-.66,3.19-1.53l1.55,2.18c-1.18,1.18-2.63,2.06-4.66,2.06-3.88,0-7.03-3.19-7.03-6.97"/>
  <path class="cls-7" d="m379.22,136.29c0-3.86,3.14-7.01,6.99-7.01s7,3.15,7,7.01-3.15,6.96-7,6.96-6.98-3.14-6.98-6.96m11.25-.02c0-2.35-1.92-4.27-4.27-4.27s-4.25,1.92-4.25,4.27,1.91,4.24,4.25,4.24,4.27-1.91,4.27-4.24"/>
  <polygon class="cls-7" points="409.83 129.22 409.83 142.99 407.13 142.99 407.13 137.14 403.26 142.77 403.24 142.77 399.37 137.14 399.37 142.99 396.67 142.99 396.67 129.22 396.82 129.22 403.25 138.1 409.68 129.22 409.83 129.22"/>
  <polygon class="cls-7" points="427.04 129.22 427.04 142.99 424.34 142.99 424.34 137.14 420.47 142.77 420.45 142.77 416.58 137.14 416.58 142.99 413.87 142.99 413.87 129.22 414.02 129.22 420.46 138.1 426.89 129.22 427.04 129.22"/>
  <polygon class="cls-7" points="433.78 132.21 433.78 134.84 438.42 134.84 438.42 137.53 433.78 137.53 433.78 140.31 439.19 140.31 439.19 142.99 431.08 142.99 431.08 129.55 439.19 129.55 439.19 132.21 433.78 132.21"/>
  <path class="cls-7" d="m449.86,142.99l-4.28-6.35v6.35h-2.7v-13.44s4.38,0,4.38,0c2.51,0,4.57,1.93,4.57,4.35,0,1.73-1.04,3.24-2.48,3.74l3.82,5.34h-3.3Zm-4.29-7.39h1.73c.92.02,1.73-.73,1.73-1.68s-.83-1.69-1.73-1.69h-1.73v3.38Z"/>
  <path class="cls-7" d="m455.58,136.28c0-3.79,3.19-7,6.98-7,1.75.03,3.3.72,4.71,2.08l-1.56,2.13c-.92-.9-2.02-1.45-3.18-1.45-2.16,0-4.22,1.92-4.22,4.27s2.13,4.24,4.21,4.24c1.23,0,2.3-.66,3.19-1.53l1.55,2.18c-1.18,1.18-2.63,2.06-4.66,2.06-3.88,0-7.03-3.19-7.03-6.97"/>
  <polygon class="cls-7" points="473.19 132.21 473.19 134.84 477.83 134.84 477.83 137.53 473.19 137.53 473.19 140.31 478.6 140.31 478.6 142.99 470.49 142.99 470.49 129.55 478.6 129.55 478.6 132.21 473.19 132.21"/>
  <path class="cls-7" d="m500.17,143.12c-.94,0-2.15-.51-3.41-1.32-.97.98-2.26,1.49-3.74,1.49-3.14,0-4.6-2.34-4.6-4.14,0-1.55,1.08-3.13,2.09-3.8-.53-.95-.85-1.86-.85-2.62,0-1.74,1.69-3.58,3.77-3.58,1.86,0,3.34,1.48,3.68,3.02l-2.58.52c-.14-.58-.67-1.05-1.18-1.05s-1.01.47-1.01,1.19c0,1.33,1.69,3.59,3.6,5.32.18-.57.28-1.2.32-1.88l2.53-.03c-.03,1.37-.28,2.56-.7,3.56.81.5,1.55.81,2.11.81v2.5Zm-5.59-2.97c-.99-.86-1.93-1.83-2.73-2.83-.48.41-.88.92-.88,1.64,0,1.04.62,1.69,1.9,1.69.67,0,1.23-.18,1.7-.5"/>
  <polygon class="cls-7" points="523.28 129.22 523.28 142.99 520.58 142.99 520.58 137.14 516.71 142.77 516.69 142.77 512.82 137.14 512.82 142.99 510.12 142.99 510.12 129.22 510.27 129.22 516.7 138.1 523.13 129.22 523.28 129.22"/>
  <path class="cls-7" d="m535.49,141.12h-5.38l-.86,1.88h-2.92l6.42-13.78h.08l6.43,13.78h-2.93l-.85-1.88Zm-1.05-2.3l-1.63-3.59-1.64,3.59h3.28Z"/>
  <polygon class="cls-7" points="553.12 129.52 553.12 143.24 553 143.24 545.01 135.48 545.01 143.01 542.31 143.01 542.31 129.3 542.45 129.3 550.41 137.05 550.41 129.52 553.12 129.52"/>
  <path class="cls-7" d="m565.33,141.12h-5.38l-.86,1.88h-2.92l6.42-13.78h.08l6.43,13.78h-2.93l-.85-1.88Zm-1.05-2.3l-1.63-3.59-1.64,3.59h3.28Z"/>
  <path class="cls-7" d="m583.81,136.58c0,4.22-2.91,6.68-6.41,6.68-3.96,0-7.08-3.14-7.08-6.97s3.14-7.01,6.98-7.01c1.74.02,3.6.82,4.92,2.1l-1.5,2.24c-1.05-1.03-2.25-1.61-3.45-1.61-2.09,0-4.19,1.77-4.19,4.28,0,2.33,1.82,4.25,4.44,4.25,1.92,0,3.29-.98,3.39-2.6h-3.48v-2.49h6.32c.04.39.07.77.07,1.13"/>
  <polygon class="cls-7" points="589.97 132.21 589.97 134.84 594.61 134.84 594.61 137.53 589.97 137.53 589.97 140.31 595.37 140.31 595.37 142.99 587.27 142.99 587.27 129.55 595.37 129.55 595.37 132.21 589.97 132.21"/>
  <polygon class="cls-7" points="612.23 129.22 612.23 142.99 609.53 142.99 609.53 137.14 605.66 142.77 605.64 142.77 601.77 137.14 601.77 142.99 599.06 142.99 599.06 129.22 599.22 129.22 605.65 138.1 612.08 129.22 612.23 129.22"/>
  <polygon class="cls-7" points="618.97 132.21 618.97 134.84 623.61 134.84 623.61 137.53 618.97 137.53 618.97 140.31 624.38 140.31 624.38 142.99 616.27 142.99 616.27 129.55 624.38 129.55 624.38 132.21 618.97 132.21"/>
  <polygon class="cls-7" points="638.88 129.52 638.88 143.24 638.75 143.24 630.77 135.48 630.77 143.01 628.07 143.01 628.07 129.3 628.2 129.3 636.17 137.05 636.17 129.52 638.88 129.52"/>
  <polygon class="cls-7" points="651.42 132.23 648.12 132.23 648.12 142.99 645.41 142.99 645.41 132.23 642.1 132.23 642.1 129.55 651.42 129.55 651.42 132.23"/>
  <path class="cls-16" d="m222.69,104.67l8.8-8.63c2.28,3.36,6.52,5.4,11.11,5.4,3.09,0,6.12-1.12,6.12-3.36,0-2.82-5.61-5.3-10.97-7.68-6.93-2.99-12.88-7.54-12.88-15.8,0-9.48,9-16.24,19.4-16.24,8.36,0,14.88,3.94,17.02,9.34l-8.39,8.09c-1.63-2.89-5.84-4.15-8.46-4.15-2.99,0-5.13,1.53-5.13,3.4,0,2.51,3.87,3.33,9.78,5.81,8.56,3.6,14.23,8.83,14.23,16.92,0,10.43-9.72,16.92-20.69,16.92-9,0-17.19-3.98-19.94-10.02"/>
  <rect class="cls-16" x="269.98" y="59.18" width="14.54" height="54.76"/>
  <path class="cls-16" d="m350.32,87.82c0,16.65-12.57,27.42-28.13,27.42-17.39,0-30.54-12.98-30.54-28.6s13.18-28.77,30.17-28.77c6.96.1,15.02,3.06,19.53,7.24l-8.05,11.04c-3.06-2.85-7.44-4.69-11.48-4.69-8.15,0-15.32,6.69-15.32,15.15,0,7.68,6.15,15.15,16.27,15.15,6.62,0,11.35-3.19,11.55-8.43h-12.54v-10.84h28.09c.27,1.83.44,3.6.44,5.33"/>
  <polygon class="cls-16" points="404.77 59.11 404.77 114.49 400.15 114.49 371.99 87.21 371.99 113.98 357.45 113.98 357.45 58.64 362.14 58.64 390.2 85.82 390.2 59.11 404.77 59.11"/>
  <path class="cls-16" d="m449.37,107.56h-20.45l-2.79,6.39h-15.9l25.45-55.44h6.9l25.48,55.44h-15.93l-2.75-6.39Zm-4.62-10.63l-5.61-12.98-5.64,12.98h11.24Z"/>
  <polygon class="cls-16" points="504.23 72.77 491.12 72.77 491.12 113.95 476.54 113.95 476.54 72.77 463.4 72.77 463.4 59.18 504.23 59.18 504.23 72.77"/>
  <path class="cls-16" d="m509.94,94.04v-34.86h14.64v34.82c0,4.55,3.91,7.58,8.05,7.58s8.12-3.09,8.12-7.58v-34.82h14.64v34.86c0,12.57-10.19,21.44-22.73,21.44s-22.73-8.87-22.73-21.44"/>
  <path class="cls-16" d="m593.67,113.94l-14.64-23.78v23.78h-14.54l-.07-54.76h20.79c11.82,0,20.28,7.98,20.28,17.8,0,6.83-4.11,12.54-9.48,14.98l14.68,21.98h-17.02Zm-14.71-30.71l5.94.03c3.09.03,5.91-2.14,5.91-5.5s-2.85-5.5-5.91-5.5h-5.94v10.97Z"/>
  <polygon class="cls-16" points="630.29 72.7 630.29 80.35 647.69 80.35 647.69 92.47 630.29 92.47 630.29 100.32 651.42 100.32 651.42 113.95 615.92 113.95 615.92 59.18 651.42 59.18 651.42 72.7 630.29 72.7"/>
</svg>